<?xml version="1.0" encoding="UTF-8" standalone="no"?>
<svg
   width="256"
   height="134"
   viewBox="0 0 256 134"
   version="1.1"
   id="svg18"
   xmlns="http://www.w3.org/2000/svg"
>
   <defs
      id="defs2" />
   <g
      id="g907"
      transform="matrix(3.3275404,0,0,3.3275404,0.49999819,0.44752597)">
      <path
         class="a"
         d="M 23.634,12.915 V 30.823 H 20.103 V 12.915 Z"
         id="path4"
         style="fill:#000000" />
      <path
         class="a"
         d="m 28.776,28.495 a 9.665,9.665 0 0 1 0,-13.265 8.979,8.979 0 0 1 6.677,-2.673 9.128,9.128 0 0 1 4.49,1.138 8.332,8.332 0 0 1 3.21,3.083 l -3.044,1.765 a 4.737,4.737 0 0 0 -1.893,-1.88 6.127,6.127 0 0 0 -6.971,0.959 6.405,6.405 0 0 0 0,8.468 5.612,5.612 0 0 0 4.208,1.637 5.7,5.7 0 0 0 2.776,-0.678 4.589,4.589 0 0 0 1.88,-1.854 l 3.044,1.765 a 8.351,8.351 0 0 1 -3.2,3.082 9.1,9.1 0 0 1 -4.5,1.139 8.959,8.959 0 0 1 -6.677,-2.686 z"
         id="path6"
         style="fill:#000000" />
      <path
         class="a"
         d="m 56.405,27.446 v 3.377 H 45.328 V 12.915 h 10.949 v 3.377 h -7.419 v 3.812 h 6.78 v 3.325 h -6.78 v 4.017 z"
         id="path8"
         style="fill:#000000" />
      <path
         class="a"
         d="m 60.64,28.482 a 9.4,9.4 0 1 1 6.587,2.7 8.99,8.99 0 0 1 -6.587,-2.7 z m 10.706,-2.4 a 6.172,6.172 0 0 0 0,-8.429 5.933,5.933 0 0 0 -8.238,0 6.172,6.172 0 0 0 0,8.429 5.966,5.966 0 0 0 8.238,0 z"
         id="path10"
         style="fill:#000000" />
      <circle
         class="b"
         id="circle1"
         cx="21.912001"
         cy="2.822"
         r="2.822"
         style="fill:#ff102c;fill-opacity:1" />
      <circle
         class="b"
         id="circle2"
         cx="11.013"
         cy="7.9709997"
         r="4.2329998"
         style="fill:#ff102c;fill-opacity:1" />
      <circle
         class="b"
         id="circle3"
         cx="5.6440001"
         cy="21.868999"
         r="5.6440001"
         style="fill:#ff102c;fill-opacity:1" />
      <circle
         class="b"
         id="circle4"
         cx="11.013"
         cy="35.768002"
         r="4.2329998"
         style="fill:#ff102c;fill-opacity:1" />
   </g>
</svg>